<?xml version="1.0" encoding="utf-8"?>
<!-- Generator: Adobe Illustrator 25.4.1, SVG Export Plug-In . SVG Version: 6.00 Build 0)  -->
<svg version="1.1" id="Layer_1" xmlns="http://www.w3.org/2000/svg" xmlns:xlink="http://www.w3.org/1999/xlink" x="0px" y="0px"
	 viewBox="0 0 24 24" style="enable-background:new 0 0 24 24;" xml:space="preserve">
<style type="text/css">
	.st0{fill:#494949;}
</style>
<g id="XMLID_00000049183846459791921880000018331108314359121561_">
	<g>
		<path class="st0" d="M20.5,9.1c0.1-2-0.6-3.9-2.1-5.5L20.1,2C22,4,23,6.6,23,9.1c0,2.5-1,5-2.9,6.9l-1.6-1.6
			C19.8,12.8,20.5,11,20.5,9.1z"/>
		<path class="st0" d="M16.8,5.4c1,1.1,1.5,2.4,1.5,3.7s-0.5,2.6-1.5,3.6l-1.7-1.7c0.1-0.1,0.2-0.3,0.3-0.5c0.6-1.1,0.5-2.4-0.3-3.4
			L16.8,5.4z"/>
		<path class="st0" d="M17,19v2H1v-2c0-2.7,5.3-4,8-4S17,16.3,17,19z M3,19h12c-0.2-0.7-3.3-2-6-2C6.3,17,3.2,18.3,3,19z"/>
		<path class="st0" d="M13,9c0,0.4-0.1,0.8-0.2,1.2c-0.5,1.6-2,2.8-3.8,2.8c-2.2,0-4-1.8-4-4s1.8-4,4-4S13,6.8,13,9z M11,9
			c0-1.1-0.9-2-2-2S7,7.9,7,9s0.9,2,2,2S11,10.1,11,9z"/>
	</g>
	<g>
	</g>
</g>
</svg>
